<?xml version="1.0" encoding="UTF-8" standalone="no" ?>
<!DOCTYPE svg PUBLIC "-//W3C//DTD SVG 1.1//EN" "http://www.w3.org/Graphics/SVG/1.1/DTD/svg11.dtd">
<svg xmlns="http://www.w3.org/2000/svg" xmlns:xlink="http://www.w3.org/1999/xlink" version="1.1" width="350" height="350" viewBox="0 0 350 350" xml:space="preserve">
<desc>Created with Fabric.js 1.7.22</desc>
<defs>
</defs>
<g id="icon" style="stroke: none; stroke-width: 1; stroke-dasharray: none; stroke-linecap: butt; stroke-linejoin: miter; stroke-miterlimit: 10; fill: none; fill-rule: nonzero; opacity: 1;" transform="translate(-1.9444444444444287 -1.9444444444444287) scale(3.89 3.89)" >
	<path d="M 90 56.176 H 0 V 9.247 c 0 -2.989 2.431 -5.42 5.42 -5.42 h 79.16 c 2.988 0 5.42 2.431 5.42 5.42 V 56.176 z M 2 54.176 h 86 V 9.247 c 0 -1.886 -1.534 -3.42 -3.42 -3.42 H 5.42 C 3.534 5.827 2 7.361 2 9.247 V 54.176 z" style="stroke: none; stroke-width: 1; stroke-dasharray: none; stroke-linecap: butt; stroke-linejoin: miter; stroke-miterlimit: 10; fill: rgb(0,0,0); fill-rule: nonzero; opacity: 1;" transform=" matrix(1 0 0 1 0 0) " stroke-linecap="round" />
	<path d="M 84.58 68.6 H 5.42 C 2.431 68.6 0 66.168 0 63.18 v -9.004 h 90 v 9.004 C 90 66.168 87.568 68.6 84.58 68.6 z M 2 56.176 v 7.004 c 0 1.886 1.534 3.42 3.42 3.42 h 79.16 c 1.886 0 3.42 -1.534 3.42 -3.42 v -7.004 H 2 z" style="stroke: none; stroke-width: 1; stroke-dasharray: none; stroke-linecap: butt; stroke-linejoin: miter; stroke-miterlimit: 10; fill: rgb(0,0,0); fill-rule: nonzero; opacity: 1;" transform=" matrix(1 0 0 1 0 0) " stroke-linecap="round" />
	<path d="M 58.825 80.963 h -27.65 c -0.432 0 -0.815 -0.277 -0.95 -0.688 s 0.01 -0.861 0.358 -1.117 c 3.798 -2.789 6.333 -7.05 6.955 -11.69 c 0.066 -0.496 0.49 -0.867 0.991 -0.867 h 12.94 c 0.501 0 0.925 0.37 0.991 0.867 c 0.622 4.641 3.158 8.901 6.956 11.69 c 0.349 0.256 0.493 0.706 0.358 1.117 S 59.258 80.963 58.825 80.963 z M 33.887 78.963 h 22.227 c -2.843 -2.8 -4.784 -6.437 -5.498 -10.363 H 39.384 C 38.671 72.526 36.73 76.163 33.887 78.963 z" style="stroke: none; stroke-width: 1; stroke-dasharray: none; stroke-linecap: butt; stroke-linejoin: miter; stroke-miterlimit: 10; fill: rgb(0,0,0); fill-rule: nonzero; opacity: 1;" transform=" matrix(1 0 0 1 0 0) " stroke-linecap="round" />
	<path d="M 61.054 86.174 H 28.946 c -1.988 0 -3.605 -1.617 -3.605 -3.605 s 1.617 -3.605 3.605 -3.605 h 32.108 c 1.988 0 3.605 1.617 3.605 3.605 S 63.042 86.174 61.054 86.174 z M 28.946 80.963 c -0.885 0 -1.605 0.72 -1.605 1.605 s 0.72 1.605 1.605 1.605 h 32.108 c 0.886 0 1.605 -0.72 1.605 -1.605 s -0.72 -1.605 -1.605 -1.605 H 28.946 z" style="stroke: none; stroke-width: 1; stroke-dasharray: none; stroke-linecap: butt; stroke-linejoin: miter; stroke-miterlimit: 10; fill: rgb(0,0,0); fill-rule: nonzero; opacity: 1;" transform=" matrix(1 0 0 1 0 0) " stroke-linecap="round" />
	<path d="M 46.701 62.388 h -3.402 c -0.552 0 -1 -0.447 -1 -1 s 0.448 -1 1 -1 h 3.402 c 0.553 0 1 0.447 1 1 S 47.254 62.388 46.701 62.388 z" style="stroke: none; stroke-width: 1; stroke-dasharray: none; stroke-linecap: butt; stroke-linejoin: miter; stroke-miterlimit: 10; fill: rgb(0,0,0); fill-rule: nonzero; opacity: 1;" transform=" matrix(1 0 0 1 0 0) " stroke-linecap="round" />
	<path d="M 36.285 39.729 c -3.492 0 -4.498 -3.108 -5.307 -5.605 C 30.15 31.567 29.55 30 27.715 30 c -0.552 0 -1 -0.448 -1 -1 s 0.448 -1 1 -1 c 1.835 0 2.436 -1.567 3.264 -4.124 c 0.809 -2.498 1.815 -5.605 5.307 -5.605 c 0.552 0 1 0.448 1 1 s -0.448 1 -1 1 c -1.939 0 -2.557 1.604 -3.404 4.221 c -0.511 1.579 -1.103 3.405 -2.36 4.508 c 1.257 1.103 1.849 2.929 2.36 4.508 c 0.847 2.617 1.465 4.221 3.404 4.221 c 0.552 0 1 0.448 1 1 S 36.837 39.729 36.285 39.729 z" style="stroke: none; stroke-width: 1; stroke-dasharray: none; stroke-linecap: butt; stroke-linejoin: miter; stroke-miterlimit: 10; fill: rgb(0,0,0); fill-rule: nonzero; opacity: 1;" transform=" matrix(1 0 0 1 0 0) " stroke-linecap="round" />
	<path d="M 53.715 39.729 c -0.553 0 -1 -0.448 -1 -1 s 0.447 -1 1 -1 c 1.938 0 2.557 -1.604 3.404 -4.222 c 0.511 -1.578 1.103 -3.405 2.36 -4.507 c -1.258 -1.103 -1.85 -2.929 -2.36 -4.507 c -0.848 -2.618 -1.466 -4.222 -3.404 -4.222 c -0.553 0 -1 -0.448 -1 -1 s 0.447 -1 1 -1 c 3.492 0 4.498 3.108 5.307 5.605 C 59.85 26.433 60.45 28 62.285 28 c 0.553 0 1 0.448 1 1 s -0.447 1 -1 1 c -1.835 0 -2.436 1.567 -3.264 4.124 C 58.213 36.621 57.207 39.729 53.715 39.729 z" style="stroke: none; stroke-width: 1; stroke-dasharray: none; stroke-linecap: butt; stroke-linejoin: miter; stroke-miterlimit: 10; fill: rgb(0,0,0); fill-rule: nonzero; opacity: 1;" transform=" matrix(1 0 0 1 0 0) " stroke-linecap="round" />
	<path d="M 41.069 42.052 c -0.105 0 -0.212 -0.017 -0.318 -0.052 c -0.523 -0.176 -0.806 -0.743 -0.63 -1.266 l 8.08 -24.103 c 0.176 -0.523 0.743 -0.805 1.266 -0.63 c 0.524 0.176 0.807 0.743 0.631 1.266 l -8.08 24.103 C 41.877 41.787 41.487 42.052 41.069 42.052 z" style="stroke: none; stroke-width: 1; stroke-dasharray: none; stroke-linecap: butt; stroke-linejoin: miter; stroke-miterlimit: 10; fill: rgb(0,0,0); fill-rule: nonzero; opacity: 1;" transform=" matrix(1 0 0 1 0 0) " stroke-linecap="round" />
</g>
</svg>